
<svg width="400" height="400" viewBox="0 0 400 400" fill="none" xmlns="http://www.w3.org/2000/svg">
<g clip-path="url(#clip0_1_18)">
<path d="M400 200C400 310.457 310.457 400 200 400C89.5431 400 0 310.457 0 200C0 89.543 89.5431 -1.12267e-05 200 -1.12267e-05C310.457 -1.12267e-05 400 89.543 400 200Z" fill="url(#paint0_linear_1_18)"/>
<path d="M79.4348 261.071C73.8354 261.071 68.7537 260.016 64.1898 257.907C59.6259 255.759 56.0016 252.672 53.3169 248.645C50.6323 244.58 49.29 239.67 49.29 233.918C49.29 228.855 50.2871 224.751 52.2814 221.607C54.2757 218.423 56.9412 215.93 60.2779 214.128C63.6145 212.325 67.2963 210.983 71.3233 210.101C75.3887 209.18 79.4732 208.452 83.5769 207.915C88.9462 207.224 93.2992 206.707 96.6358 206.362C100.011 205.978 102.465 205.345 103.999 204.463C105.572 203.581 106.358 202.047 106.358 199.861V199.401C106.358 193.724 104.805 189.314 101.698 186.169C98.6302 183.024 93.9704 181.452 87.7189 181.452C81.2374 181.452 76.1557 182.871 72.4739 185.709C68.7921 188.547 66.2033 191.577 64.7076 194.798L51.8212 190.196C54.1223 184.827 57.1905 180.646 61.0257 177.655C64.8993 174.625 69.1181 172.516 73.682 171.327C78.2843 170.099 82.8098 169.486 87.2587 169.486C90.0968 169.486 93.3567 169.831 97.0385 170.521C100.759 171.173 104.345 172.535 107.796 174.606C111.286 176.677 114.182 179.803 116.483 183.983C118.784 188.163 119.935 193.763 119.935 200.781V259H106.358V247.034H105.668C104.747 248.952 103.213 251.004 101.066 253.19C98.9178 255.376 96.0605 257.236 92.4938 258.77C88.927 260.304 84.574 261.071 79.4348 261.071ZM81.5059 248.875C86.8752 248.875 91.4007 247.82 95.0826 245.711C98.8027 243.602 101.602 240.879 103.482 237.542C105.399 234.205 106.358 230.696 106.358 227.014V214.588C105.783 215.278 104.517 215.911 102.561 216.487C100.644 217.023 98.4192 217.503 95.888 217.925C93.3951 218.308 90.9597 218.653 88.5819 218.96C86.2424 219.229 84.3439 219.459 82.8865 219.651C79.3581 220.111 76.0598 220.859 72.9917 221.894C69.9618 222.891 67.5073 224.406 65.628 226.439C63.7871 228.433 62.8667 231.156 62.8667 234.608C62.8667 239.325 64.6117 242.892 68.1017 245.308C71.6302 247.686 76.0982 248.875 81.5059 248.875ZM245.965 200.091C245.965 212.517 243.722 223.256 239.234 232.307C234.747 241.358 228.592 248.338 220.768 253.247C212.944 258.156 204.008 260.611 193.96 260.611C183.911 260.611 174.975 258.156 167.151 253.247C159.327 248.338 153.172 241.358 148.685 232.307C144.197 223.256 141.954 212.517 141.954 200.091C141.954 187.665 144.197 176.926 148.685 167.875C153.172 158.824 159.327 151.844 167.151 146.935C174.975 142.026 183.911 139.571 193.96 139.571C204.008 139.571 212.944 142.026 220.768 146.935C228.592 151.844 234.747 158.824 239.234 167.875C243.722 176.926 245.965 187.665 245.965 200.091ZM232.158 200.091C232.158 189.889 230.452 181.279 227.038 174.261C223.663 167.242 219.08 161.93 213.289 158.325C207.536 154.72 201.093 152.918 193.96 152.918C186.826 152.918 180.364 154.72 174.572 158.325C168.82 161.93 164.237 167.242 160.823 174.261C157.448 181.279 155.761 189.889 155.761 200.091C155.761 210.293 157.448 218.903 160.823 225.921C164.237 232.94 168.82 238.251 174.572 241.857C180.364 245.462 186.826 247.264 193.96 247.264C201.093 247.264 207.536 245.462 213.289 241.857C219.08 238.251 223.663 232.94 227.038 225.921C230.452 218.903 232.158 210.293 232.158 200.091ZM334.386 170.636C333.696 164.807 330.896 160.281 325.987 157.06C321.078 153.838 315.057 152.227 307.923 152.227C302.707 152.227 298.143 153.071 294.232 154.759C290.358 156.446 287.328 158.766 285.142 161.719C282.994 164.673 281.92 168.028 281.92 171.787C281.92 174.932 282.668 177.636 284.164 179.898C285.698 182.123 287.654 183.983 290.032 185.479C292.41 186.936 294.903 188.144 297.511 189.103C300.119 190.023 302.516 190.771 304.702 191.347L316.668 194.568C319.736 195.374 323.149 196.486 326.908 197.905C330.705 199.324 334.329 201.261 337.781 203.715C341.271 206.131 344.147 209.238 346.41 213.035C348.673 216.832 349.804 221.491 349.804 227.014C349.804 233.381 348.136 239.134 344.799 244.273C341.501 249.412 336.668 253.496 330.302 256.526C323.974 259.556 316.284 261.071 307.233 261.071C298.795 261.071 291.489 259.71 285.315 256.987C279.178 254.263 274.346 250.467 270.817 245.596C267.327 240.725 265.352 235.068 264.892 228.625H279.619C280.003 233.074 281.499 236.756 284.107 239.67C286.753 242.547 290.089 244.695 294.116 246.114C298.182 247.494 302.554 248.185 307.233 248.185C312.679 248.185 317.569 247.303 321.903 245.538C326.237 243.736 329.669 241.243 332.2 238.06C334.732 234.838 335.997 231.08 335.997 226.784C335.997 222.872 334.904 219.689 332.718 217.234C330.532 214.78 327.656 212.786 324.089 211.251C320.522 209.717 316.668 208.375 312.526 207.224L298.028 203.082C288.824 200.436 281.537 196.658 276.168 191.749C270.798 186.84 268.114 180.416 268.114 172.477C268.114 165.881 269.897 160.128 273.464 155.219C277.069 150.271 281.901 146.436 287.961 143.713C294.059 140.952 300.866 139.571 308.384 139.571C315.977 139.571 322.727 140.933 328.634 143.656C334.54 146.34 339.219 150.022 342.67 154.701C346.161 159.38 348.001 164.692 348.193 170.636H334.386Z" fill="black"/>
</g>
<defs>
<linearGradient id="paint0_linear_1_18" x1="200" y1="0" x2="200" y2="400" gradientUnits="userSpaceOnUse">
<stop stop-color="#FF0000"/>
<stop offset="0.48" stop-color="#FF8A00"/>
<stop offset="1" stop-color="#FFE600"/>
</linearGradient>
<clipPath id="clip0_1_18">
<rect width="400" height="400" fill="white"/>
</clipPath>
</defs>
</svg>
